<?xml version="1.0" encoding="UTF-8"?>
<svg data-bbox="0 0 2909.417 1100.95" xmlns="http://www.w3.org/2000/svg" viewBox="0 0 2910 1101" fill-rule="evenodd" clip-rule="evenodd" stroke-linejoin="round" stroke-miterlimit="2" data-type="ugc">
    <g>
        <path fill="none" d="M2909.417 0v1100.95H0V0h2909.417z"/>
        <path d="M511.806 520.036c-48.14-46.593-22.675-82.273-22.675-82.273l-63.05-.393s-5.799-2.898-18.662-7.162c25.32 52.833-9.257 109.32-9.257 109.32 39.338-28.307 38.935-63.709 36.96-75.32 1.803 7.422 18.903 35.26 76.684 55.828z" fill="#fd5a89" fill-rule="nonzero"/>
        <path d="M482.555 406.983c-41.136-1.12-106.46-56.252-106.46-56.252s-55.567-44.772-58.645-83.108c-3.116-38.807 34.42-68.841 53.45-79.476 19.03-10.633 31.008-19.79 31.008-19.79l-3.651-10.153s8.774-11.89 13.149-13.222c4.12-1.254 14.271-3.778 14.271-3.778l-11.263-21.196s-9.009-32.738-18.33-37.57c-5.666-2.938 1.046 13.306-4.83 22.542-3.918 6.157 3.153 21.952-13.918 30.558-9.175 4.624-76.536 51.21-103.54 82.832-4.064 4.759-4.058-32.46-20.15-43.095-1.895-.996.96-9.939-10.074-21.268-13.327-13.685 3.918-31.341-56.526-18.47-35.26 7.51-50.268 75.882 0 107.459 24.307 15.27 26.583 20.116 26.865 30.223.432 15.6-4.608 40.297 6.09 62.123 10.699 21.828 76.182 90.669 59.391 112.497C262.602 469.665 94.7 573.764 94.7 573.764l30.221 119.212 133.64-152.639-91.664 200.771 92.977 67.3s10.962 89.158 4.407 106.201c10.913 12.59 10.048 9.545 10.048 9.545s-6.27 4.726-11.307 12.281c-5.037 7.557-10.074 28.544-10.074 28.544l18.05 14.273 11.746-5.17s7.552 31.193 13.439 38.75c5.887 7.554 21.407 13.196 65.063 8.998 8.24-9-15.462-13.902-21.41-17.392-6.123-3.596-11.751-15.952-14.27-26.026-2.52-10.075-2.938-15.112 1.259-27.704 4.198-12.594 1.106-271.713 1.106-271.713 27.675-52.024 49.971-101.413 53.882-113.624 5.17-16.147 32.9-92.767 10.006-139.36 15.178 5.037 73.422 24.335 73.422 24.335l3.5-7.676s11.658-2.942 18.85-4.627c6.072-1.42 10.217-3.205 12.875-7.835 1.971-3.433 3.565-6.079 5.734-9.234 3.081-4.477 1.01-6.3 3.591-9.826 1.678-2.295 2.08-3.327 2.008-6.825-.376-18.186-22.507 2.842-29.244 2.66z" fill="#404042" fill-rule="nonzero"/>
        <path d="M400.943 87.22c.265-3.747 14.483-5.97 20.537-3.733 19.869 7.339 17.827 34.336 19.191 40.718 4.946 23.086 28.451 54.148 47.483 93.605 2.294 4.755 18.468 40.857 18.468 40.857s14.772-17.739 23.963-24.079c30.147-20.801 59.848-16.358 78.457.012 33.577 29.54 22.947 76.677 17.91 143.837-5.037 67.16-104.94 8.115-104.659-34.14-1.423 11.215-3.078 44.87-23.506 61.026-20.85 16.49-76.677 2.218-85.073-.02-8.394-2.239-43.654-17.072-62.124-31.343-9.057-7-34.84-22.876-43.234-22.876-10.963 0-16.892 6.711-24.765 8.815-4.326 1.154-8.606 4.89-23.507 6.716-10.284 1.26.545-4.03 1.888-5.037 5.037-3.778 6.017-4.897 7.136-10.494 1.119-5.598 5.807-10.145 5.807-10.145s-18.356 6.832-25.228 4.378c-3.918-1.399 4.12-2.868 26.347-13.543 5.876-2.82 11.958-7.55 24.34-6.152-4.059-5.876-13.605-15.831-5.451-12.106 11.62 5.308 16.65 14.55 30.643 20.147 13.992 5.597 68 25.746 77.516 34.141-11.195-19.588-3.547-32.625 23.224-45.894 32.185-15.95 38.15-26.297 41.137-36.38 4.479-15.11-2.798-42.534-5.035-49.25-2.24-6.717-36.346-98.645-46.595-103.68-24.346-11.964-8.71-37.778-14.87-45.38z" fill="#fd5a89" fill-rule="nonzero"/>
        <path d="M206.074 824.383c15.672 41.977 60.991 53.727 100.52 59.326 14.563-57.204 93.687-322.244 93.687-322.244S225.445 793.8 206.074 824.383z" fill="#fd5a89" fill-rule="nonzero"/>
        <path d="M349.35 920.765s29.667-98.502 149.437-46.452c-33.021-134.882-78.917-321.42-78.917-321.42l-70.52 367.872z" fill="#fd5a89" fill-rule="nonzero"/>
        <path d="M548.598 873.752s85.111 24.625 119.231-51.49C598.969 722.64 437.5 534.587 437.5 534.587l111.098 339.164z" fill="#fd5a89" fill-rule="nonzero"/>
        <path d="M454.025 509.195s167.33 183.222 240.089 288.442c13.43-6.718 40.296-30.223 96.265-21.269-76.118-97.628-336.354-267.173-336.354-267.173z" fill="#fd5a89" fill-rule="nonzero"/>
        <path d="M472.226 965.314c-1.455 10.19-3.719 15.404-10.674 31.54-5.125 11.892-21.325 12.498-21.325 12.498s-16.724 3.715-12.842 10.022c1.629 2.646 31.435 5.138 44.933 3.198 13.496-1.942 7.833-11.557 23.686-24.263 15.802-12.665 17.081 19.409 17.081 19.409l6.21-.486s-2.913-11.16 0-20.378c2.909-9.219 6.34-11.047 8.86-19.409 2.783-9.219-1.869-16.982-15.07-27.17-13.202-10.19-25.816-55.317-25.816-55.317s-32.024-13.099-43.183-7.763c22.32 38.817 29.597 67.93 28.14 78.12z" fill="#fd5a89" fill-rule="nonzero"/>
        <path d="M431.554 79.237c-4.193-4.778-5.52 2.667-5.947 4.25-2.895 10.766 4.689 36.31 8.467 37.78 3.777 1.469 13.01-.42 13.222-4.409.21-3.987-12.565-34-15.742-37.621z" fill="#404042" fill-rule="nonzero"/>
        <path d="M906.858 435.083c0 41.603 28.924 70.726 69.933 70.726 33.085 0 58.047-18.425 65.971-48.538h-37.245a30.707 30.707 0 0 1-29.122 17.83c-20.802 0-35.066-15.452-35.066-40.018 0-24.566 14.264-40.019 35.066-40.019 12.877 0 23.377 5.944 29.122 17.83h37.245c-7.924-30.112-32.886-48.735-65.971-48.735a67.556 67.556 0 0 0-69.933 70.924z" fill="#f05888" fill-rule="nonzero"/>
        <path d="M1158.45 504.818h35.857l-50.32-139.074h-39.226l-50.32 139.074h35.462l8.32-24.566h51.906l8.32 24.566zm-17.038-50.716h-34.274l17.038-50.915 17.236 50.915z" fill="#f05888" fill-rule="nonzero"/>
        <path d="M1283.068 410.913c0 10.896-5.943 17.434-18.622 17.434h-21v-34.471h21c12.679 0 18.622 6.736 18.622 17.037zm-73.5-45.169v139.074h33.878v-52.5h8.123l28.924 52.5h38.235l-32.094-55.075a40.415 40.415 0 0 0 30.906-40.216c0-24.17-17.038-43.783-51.113-43.783h-56.858z" fill="#f05888" fill-rule="nonzero"/>
        <path d="M1475.623 434.885a69.339 69.339 0 0 0-71.122-71.122 69.735 69.735 0 0 0-71.518 71.122c0 41.801 32.094 71.32 71.518 71.32a69.735 69.735 0 0 0 71.122-71.32zm-107.97 0c0-24.764 14.263-40.415 36.848-40.415 22.188 0 36.65 15.65 36.65 40.415 0 24.367-14.462 40.414-36.65 40.414-22.585 0-36.849-16.047-36.849-40.414z" fill="#f05888" fill-rule="nonzero"/>
        <path d="M1494.45 365.744v139.074h78.254v-26.15h-44.377V365.743h-33.877z" fill="#f05888" fill-rule="nonzero"/>
        <path d="M1674.134 365.744h-85.188v139.074h85.188v-27.141h-51.311v-30.51h45.367v-26.15h-45.367v-28.132h51.31v-27.141z" fill="#f05888" fill-rule="nonzero"/>
        <path d="M1824.698 504.818h33.877V365.744h-33.877v54.48H1772v-54.48h-33.877v139.074H1772v-57.254h52.698v57.254z" fill="#f05888" fill-rule="nonzero"/>
        <path d="M1968.13 365.744h-85.187v139.074h85.188v-27.141h-51.311v-30.51h45.367v-26.15h-45.367v-28.132h51.31v-27.141z" fill="#f05888" fill-rule="nonzero"/>
        <path d="M1990.13 365.744v139.074h78.254v-26.15h-44.377V365.743h-33.877z" fill="#f05888" fill-rule="nonzero"/>
        <path d="M2084.628 365.744v139.074h78.254v-26.15h-44.377V365.743h-33.877z" fill="#f05888" fill-rule="nonzero"/>
        <path d="M2264.312 365.744h-85.188v139.074h85.188v-27.141H2213v-30.51h45.367v-26.15H2213v-28.132h51.31v-27.141z" fill="#f05888" fill-rule="nonzero"/>
        <path d="M2314.232 504.818h41.009l22.98-91.527 22.19 91.527h41.008l36.255-139.074h-36.453l-20.207 101.235-23.774-101.235h-37.245l-24.764 101.235-20.009-101.235h-36.254l35.264 139.074z" fill="#f05888" fill-rule="nonzero"/>
        <path d="M2579.895 365.744h-85.188v139.074h85.188v-27.141h-51.311v-30.51h45.367v-26.15h-45.367v-28.132h51.31v-27.141z" fill="#f05888" fill-rule="nonzero"/>
        <path d="M2601.894 365.744v139.074h78.254v-26.15h-44.377V365.743h-33.877z" fill="#f05888" fill-rule="nonzero"/>
        <path d="M2696.392 365.744v139.074h78.254v-26.15h-44.377V365.743h-33.877z" fill="#f05888" fill-rule="nonzero"/>
        <path d="M989.272 678.656c0 9.906-6.538 15.057-17.83 15.057H946.48v-30.708h24.566c11.292 0 18.226 5.746 18.226 15.651zm-3.368-54.877c0 9.51-6.141 14.463-17.236 14.463H946.48v-29.123h22.188c11.095 0 17.236 5.151 17.236 14.66zm37.641 59.434a33.679 33.679 0 0 0-26.745-33.481 31.698 31.698 0 0 0 23.576-31.698c0-21.99-16.84-36.056-45.17-36.056h-62.603v139.074h64.782c29.32 0 46.16-14.858 46.16-37.84z" fill="#424042" fill-rule="nonzero"/>
        <path d="M1138.045 721.052h35.858l-50.32-139.074h-39.226l-50.32 139.074h35.462l8.32-24.566h51.906l8.32 24.566zm-17.037-50.716h-34.274l17.038-50.915 17.236 50.915z" fill="#424042" fill-rule="nonzero"/>
        <path d="M1189.165 581.978v139.074h78.254v-26.15h-44.377V581.977h-33.877z" fill="#424042" fill-rule="nonzero"/>
        <path d="M1283.663 581.978v139.074h78.254v-26.15h-44.377V581.977h-33.877z" fill="#424042" fill-rule="nonzero"/>
        <path d="M1451.66 627.147c0 10.896-5.944 17.434-18.623 17.434h-21V610.11h21c12.679 0 18.622 6.736 18.622 17.037zm-73.5-45.169v139.074h33.877v-52.5h8.123l28.924 52.5h38.235l-32.094-55.075a40.415 40.415 0 0 0 30.906-40.216c0-24.17-17.038-43.783-51.113-43.783h-56.858z" fill="#424042" fill-rule="nonzero"/>
        <path d="M1644.227 651.119a69.339 69.339 0 0 0-71.122-71.122 69.735 69.735 0 0 0-71.518 71.122c0 41.801 32.094 71.32 71.518 71.32a69.735 69.735 0 0 0 71.122-71.32zm-107.97 0c0-24.764 14.263-40.415 36.848-40.415 22.188 0 36.65 15.65 36.65 40.415 0 24.367-14.462 40.414-36.65 40.414-22.585 0-36.849-16.047-36.849-40.414z" fill="#424042" fill-rule="nonzero"/>
        <path d="M1799.935 651.119a69.339 69.339 0 0 0-71.122-71.122 69.735 69.735 0 0 0-71.518 71.122c0 41.801 32.094 71.32 71.518 71.32a69.735 69.735 0 0 0 71.122-71.32zm-107.97 0c0-24.764 14.263-40.415 36.848-40.415 22.188 0 36.65 15.65 36.65 40.415 0 24.367-14.462 40.414-36.65 40.414-22.585 0-36.849-16.047-36.849-40.414z" fill="#424042" fill-rule="nonzero"/>
        <path d="M1818.762 721.052h33.877v-83.603l31.302 83.603h27.339l31.103-83.405v83.405h33.878V581.978h-39.82l-38.633 96.282-39.028-96.282h-40.018v139.074z" fill="#424042" fill-rule="nonzero"/>
        <path d="M2141.282 615.657c.595-19.217-13.471-36.453-41.801-36.453-27.736 0-43.387 15.85-43.387 35.462 0 8.915 2.576 16.444 9.708 24.962-19.217 9.113-28.33 23.972-28.33 41.01 0 25.754 20.405 42.593 52.698 42.593a72.905 72.905 0 0 0 45.962-14.66l12.877 12.481h39.424l-33.48-32.886a154.923 154.923 0 0 0 12.282-22.189l9.51-17.236h-33.878l-7.33 12.481-2.575 5.548-33.877-33.085c-7.33-7.726-11.095-13.472-11.095-19.217 0-5.943 4.755-9.905 11.095-9.905 5.943 0 10.5 3.566 10.301 11.094h31.896zm-49.527 80.235c-13.472 0-21.595-7.925-21.595-17.632 0-7.924 4.755-14.858 14.264-19.811l30.906 29.915a38.434 38.434 0 0 1-23.575 7.528z" fill="#424042" fill-rule="nonzero"/>
        <path d="M2242.714 581.978v139.074h78.254v-26.15h-44.377V581.977h-33.877z" fill="#424042" fill-rule="nonzero"/>
        <path d="M2432.106 721.052h35.858l-50.32-139.074h-39.226l-50.32 139.074h35.462l8.32-24.566h51.906l8.32 24.566zm-17.037-50.716h-34.274l17.038-50.915 17.236 50.915z" fill="#424042" fill-rule="nonzero"/>
        <path d="M2475.698 609.12h36.848v111.932h33.877V609.119h36.85v-27.141h-107.575v27.141z" fill="#424042" fill-rule="nonzero"/>
        <path fill="#424042" fill-rule="nonzero" d="M2634.176 581.978v139.074h-33.877V581.978h33.877z"/>
        <path d="M2749.284 581.978v86.178l-56.66-86.178h-33.877v139.074h33.877V635.27l56.66 85.782h33.877V581.978h-33.877z" fill="#424042" fill-rule="nonzero"/>
    </g>
</svg>
